HIERARCHY
ROOT Hips
{
	OFFSET 0.000000 0.000000 0.000000
	CHANNELS 6 Xposition Yposition Zposition Zrotation Yrotation Xrotation 
	JOINT LHipJoint
	{
		OFFSET 0.000000 0.000000 0.000000
		CHANNELS 3 Zrotation Yrotation Xrotation
		JOINT LeftUpLeg
		{
			OFFSET 8.178360 -10.767780 5.035740
			CHANNELS 3 Zrotation Yrotation Xrotation
			JOINT LeftLeg
			{
				OFFSET 14.688660 -40.356780 0.000000
				CHANNELS 3 Zrotation Yrotation Xrotation
				JOINT LeftFoot
				{
					OFFSET 15.373200 -42.237540 0.000000
					CHANNELS 3 Zrotation Yrotation Xrotation
					JOINT LeftToeBase
					{
						OFFSET 0.945840 -2.598660 13.935300
						CHANNELS 3 Zrotation Yrotation Xrotation
						End Site
						{
							OFFSET 0.000000 0.000000 0.000000
						}
					}
				}
			}
		}
	}
	JOINT RHipJoint
	{
		OFFSET 0.000000 0.000000 0.000000
		CHANNELS 3 Zrotation Yrotation Xrotation
		JOINT RightUpLeg
		{
			OFFSET -7.833120 -10.767780 5.035740
			CHANNELS 3 Zrotation Yrotation Xrotation
			JOINT RightLeg
			{
				OFFSET -15.255180 -41.913300 0.000000
				CHANNELS 3 Zrotation Yrotation Xrotation
				JOINT RightFoot
				{
					OFFSET -15.409560 -42.337380 0.000000
					CHANNELS 3 Zrotation Yrotation Xrotation
					JOINT RightToeBase
					{
						OFFSET -0.988380 -2.715540 14.178900
						CHANNELS 3 Zrotation Yrotation Xrotation
						End Site
						{
							OFFSET 0.000000 0.000000 0.000000
						}
					}
				}
			}
		}
	}
	JOINT LowerBack
	{
		OFFSET 0.000000 0.000000 0.000000
		CHANNELS 3 Zrotation Yrotation Xrotation
		JOINT Spine
		{
			OFFSET 0.169620 12.213540 -1.160280
			CHANNELS 3 Zrotation Yrotation Xrotation
			JOINT Spine1
			{
				OFFSET 0.340320 12.293100 -0.256500
				CHANNELS 3 Zrotation Yrotation Xrotation
				JOINT Neck
				{
					OFFSET 0.000000 0.000000 0.000000
					CHANNELS 3 Zrotation Yrotation Xrotation
					JOINT Neck1
					{
						OFFSET -0.325020 10.477440 1.032120
						CHANNELS 3 Zrotation Yrotation Xrotation
						JOINT Head
						{
							OFFSET 0.624420 10.568160 -0.743820
							CHANNELS 3 Zrotation Yrotation Xrotation
							End Site
							{
								OFFSET 0.000000 0.000000 0.000000
							}
						}
					}
				}
				JOINT LeftShoulder
				{
					OFFSET 0.000000 0.000000 0.000000
					CHANNELS 3 Zrotation Yrotation Xrotation
					JOINT LeftArm
					{
						OFFSET 20.174460 7.205340 -1.867260
						CHANNELS 3 Zrotation Yrotation Xrotation
						JOINT LeftForeArm
						{
							OFFSET 29.898000 -0.000000 -0.000000
							CHANNELS 3 Zrotation Yrotation Xrotation
							JOINT LeftHand
							{
								OFFSET 20.901360 -0.000000 -0.000000
								CHANNELS 3 Zrotation Yrotation Xrotation
								JOINT LeftFingerBase
								{
									OFFSET 0.000000 0.000000 0.000000
									CHANNELS 3 Zrotation Yrotation Xrotation
									JOINT LeftHandIndex1
									{
										OFFSET 4.291560 -0.000000 -0.000000
										CHANNELS 3 Zrotation Yrotation Xrotation
										End Site
										{
											OFFSET 0.000000 0.000000 0.000000
										}
									}
								}
								JOINT LThumb
								{
									OFFSET 0.000000 0.000000 0.000000
									CHANNELS 3 Zrotation Yrotation Xrotation
									End Site
									{
										OFFSET 0.000000 0.000000 0.000000
									}
								}
							}
						}
					}
				}
				JOINT RightShoulder
				{
					OFFSET 0.000000 0.000000 0.000000
					CHANNELS 3 Zrotation Yrotation Xrotation
					JOINT RightArm
					{
						OFFSET -18.819600 8.244300 -2.427900
						CHANNELS 3 Zrotation Yrotation Xrotation
						JOINT RightForeArm
						{
							OFFSET -31.451400 -0.000000 -0.000000
							CHANNELS 3 Zrotation Yrotation Xrotation
							JOINT RightHand
							{
								OFFSET -20.665020 -0.000000 -0.000000
								CHANNELS 3 Zrotation Yrotation Xrotation
								JOINT RightFingerBase
								{
									OFFSET 0.000000 0.000000 0.000000
									CHANNELS 3 Zrotation Yrotation Xrotation
									JOINT RightHandIndex1
									{
										OFFSET -3.735180 -0.000000 -0.000000
										CHANNELS 3 Zrotation Yrotation Xrotation
										End Site
										{
											OFFSET 0.000000 0.000000 0.000000
										}
									}
								}
								JOINT RThumb
								{
									OFFSET 0.000000 0.000000 0.000000
									CHANNELS 3 Zrotation Yrotation Xrotation
									End Site
									{
										OFFSET 0.000000 0.000000 0.000000
									}
								}
							}
						}
					}
				}
			}
		}
	}
}
MOTION
Frames:	5
Frame Time:	0.0333333
-82.254882 106.526700 55.065492 174.509906 -1.690501 -176.870201 -2.663976 1.662856 2.819361 -23.566167 -5.494142 -1.650207 -0.806643 4.033925 13.486405 0.896077 -11.267079 -1.245308 0.000000 0.021500 0.059100 0.350345 -0.980489 0.527436 10.477324 10.032902 -31.996926 -4.849757 -13.660365 41.653678 -0.413289 0.944733 -1.224300 -0.595700 4.941100 -13.740600 -2.737714 1.455588 9.916092 0.287521 1.366742 3.545913 -0.595662 0.540436 -2.023030 -13.033908 7.401395 -7.725835 4.129302 5.475052 36.992809 4.690000 -2.324200 18.505100 -5.976540 -1.231974 -1.458951 -85.128075 5.688077 12.777337 22.438403 -30.923583 -7.374759 -1.012733 -2.475993 4.535771 21.434765 26.651252 11.304500 -7.125000 0.000000 0.000000 -10.180100 60.834700 -3.952000 4.681438 0.702863 -1.055088 79.313051 -2.127924 18.757830 -27.888338 37.568824 -10.153148 0.333756 -0.042493 2.123001 -14.900569 8.921872 -2.423300 7.125000 0.000000 0.000000 8.386700 -20.764100 4.920800 
-82.459818 106.660920 57.379656 174.609186 -1.579377 -177.384151 -2.659536 1.583185 2.684641 -23.524059 -5.886651 -3.069311 -0.723583 4.390487 14.433423 0.891836 -11.486251 -0.753193 0.000200 -0.087700 -0.241000 0.289528 -0.997021 0.574195 10.709006 9.077600 -32.170970 -6.690683 -15.386769 48.784809 -0.168892 -0.715733 -3.438015 -0.653200 5.169500 -14.392700 -2.650337 1.649527 10.279115 0.251275 1.587146 3.721460 -0.700779 0.652209 -1.921363 -12.799226 7.545719 -7.825916 3.868545 5.675338 37.230599 4.544000 -2.267800 18.670800 -6.004030 -1.240850 -1.440634 -84.766056 5.633024 11.753396 22.069782 -30.527996 -7.146038 -1.018310 -2.358344 2.360535 22.287514 23.893635 10.768700 -7.125000 0.000000 0.000000 -7.576200 58.093200 -2.436300 4.715095 0.688988 -1.055182 79.597272 -1.951328 18.986186 -27.221435 36.930761 -9.723880 0.330123 -0.058891 2.911060 -14.882092 9.215670 -2.501800 7.125000 0.000000 0.000000 8.393700 -20.452300 4.984700 
-82.584450 106.758594 59.650686 175.280141 -1.584382 -177.924909 -2.634605 1.526023 2.558723 -22.792255 -6.428101 -4.478806 -0.556146 5.018574 16.139826 0.880791 -11.365566 -0.143963 0.000600 -0.162200 -0.445700 0.247287 -1.020326 0.636257 11.601491 8.162179 -30.937647 -8.353712 -16.558797 54.675252 -0.341030 0.369380 -3.361173 -0.467500 4.385500 -12.163800 -1.939634 1.790023 10.532715 0.299921 1.836459 3.845780 -1.000646 0.788092 -1.847850 -12.768762 7.702934 -7.588678 4.043077 5.801090 37.360469 4.644900 -2.211000 18.631100 -6.008251 -1.210931 -1.434320 -84.253887 5.897181 11.630044 21.934608 -30.412187 -7.057290 -1.028449 -2.465256 1.986406 22.491410 25.517227 11.521400 -7.125000 0.000000 0.000000 -8.171900 59.909100 -2.985400 4.731577 0.694253 -1.049483 80.058950 -2.241381 18.989087 -26.741218 36.460309 -9.417772 0.330569 -0.070280 3.214565 -14.969198 9.456471 -2.584500 7.125000 0.000000 0.000000 8.324700 -20.191700 4.992100 
-82.604826 106.904202 61.772508 175.948095 -1.389543 -178.478330 -2.629638 1.501713 2.483617 -21.997086 -6.720791 -5.392791 -0.520773 5.212364 16.631724 0.859186 -11.110647 0.563512 0.000700 -0.173500 -0.476600 0.227807 -1.060623 0.685061 12.682574 7.346710 -28.512878 -9.619820 -17.262792 58.926875 -0.426342 0.935940 -3.428821 -0.707900 5.377300 -14.988000 -1.565467 1.932005 10.675456 0.437708 2.045655 4.027590 -0.981426 0.887928 -1.639197 -12.774123 7.755180 -7.773592 4.005596 5.935490 37.498003 4.655000 -2.181400 18.746500 -6.048868 -1.190337 -1.419236 -83.939946 6.055861 10.677405 21.169806 -29.551983 -6.597579 -1.074332 -2.257003 3.161548 22.283264 22.632092 10.275000 -7.125000 0.000000 0.000000 -6.961500 56.704000 -2.003800 4.776383 0.675663 -1.056309 80.365253 -2.417357 19.387167 -26.463190 36.173972 -9.245884 0.329901 -0.046652 3.098374 -14.919730 8.668044 -2.357500 7.125000 0.000000 0.000000 8.382100 -21.024000 4.868400 
-82.481388 107.080974 63.852384 176.072010 -1.582262 -178.568296 -2.641593 1.449076 2.382300 -21.620089 -7.138768 -6.405422 -0.556110 5.173049 16.478507 0.838389 -11.361259 1.640253 0.004600 -0.438000 -1.203600 0.243375 -1.097799 0.748074 13.167151 6.170014 -25.721929 -10.329905 -17.572593 61.240543 -0.594562 2.125006 -2.998779 -0.833100 5.822900 -16.271300 -1.795780 2.155334 10.368930 0.383691 2.321868 3.971895 -0.920861 1.041751 -1.607966 -12.404590 7.627166 -7.165830 3.953995 5.553140 37.312209 4.495900 -2.235300 18.488700 -6.027470 -1.140683 -1.424253 -83.338035 6.937425 11.324162 21.110499 -29.548784 -6.578604 -1.097551 -2.300709 3.155090 22.648195 23.445015 10.788700 -7.125000 0.000000 0.000000 -6.907400 57.673800 -2.150000 4.775168 0.654255 -1.062720 80.901316 -3.227285 19.332287 -26.333670 36.046198 -9.177841 0.302522 -0.040301 3.631013 -14.008493 8.318919 -2.116700 7.125000 0.000000 0.000000 9.068900 -21.429000 5.192800 
